<svg width="38" height="36" viewBox="0 0 38 36" fill="none" xmlns="http://www.w3.org/2000/svg">
<path d="M18.6248 6.70352C10.9165 6.70352 4.33359 11.2478 1.6665 17.6624C4.33359 24.077 10.9165 28.6213 18.6248 28.6213C26.3332 28.6213 32.9161 24.077 35.5832 17.6624C32.9161 11.2478 26.3332 6.70352 18.6248 6.70352Z" fill="#7B61FF"/>
<path d="M18.6248 24.9683C14.3698 24.9683 10.9165 21.6953 10.9165 17.6624C10.9165 13.6295 14.3698 10.3565 18.6248 10.3565C22.8798 10.3565 26.3332 13.6295 26.3332 17.6624C26.3332 21.6953 22.8798 24.9683 18.6248 24.9683ZM18.6248 13.2788C16.0657 13.2788 13.9998 15.2368 13.9998 17.6624C13.9998 20.088 16.0657 22.0459 18.6248 22.0459C21.184 22.0459 23.2498 20.088 23.2498 17.6624C23.2498 15.2368 21.184 13.2788 18.6248 13.2788Z" fill="#FDE7E7"/>
</svg>
