<svg width="41" height="21" viewBox="0 0 41 21" fill="none" xmlns="http://www.w3.org/2000/svg">
<path d="M8 20C12.4183 20 16 17.1645 16 13.6667C16 10.1689 12.4183 7.33333 8 7.33333C3.58172 7.33333 0 10.1689 0 13.6667C0 17.1645 3.58172 20 8 20Z" stroke="#E02569" stroke-width="2" stroke-linecap="round" stroke-linejoin="round"/>
<path d="M32 20C36.4183 20 40 17.1645 40 13.6667C40 10.1689 36.4183 7.33333 32 7.33333C27.5817 7.33333 24 10.1689 24 13.6667C24 17.1645 27.5817 20 32 20Z" stroke="#E02569" stroke-width="2" stroke-linecap="round" stroke-linejoin="round"/>
<path d="M6 1L0.324 11.4864C0.110634 11.8801 0.000410325 12.3041 0 12.7325V13.6667M16 13.6667L16.422 13.4988C17.5329 13.0591 18.7579 12.8301 20 12.8301C21.2421 12.8301 22.4671 13.0591 23.578 13.4988L24 13.6667H16ZM34 1L39.676 11.4864C39.8896 11.8806 39.9999 12.3051 40 12.7341V13.6667L34 1Z" stroke="#E02569" stroke-width="2" stroke-linecap="round" stroke-linejoin="round"/>
</svg>
