<svg width="37" height="25" viewBox="0 0 37 25" fill="none" xmlns="http://www.w3.org/2000/svg">
<path d="M37 16.1128C36.9996 15.5687 36.8668 15.0336 36.6142 14.5578C36.3615 14.082 35.9973 13.6812 35.5557 13.393C35.6865 13.0359 35.7666 12.6518 35.7666 12.2457C35.7651 11.4617 35.4893 10.7052 34.9911 10.119C34.4929 9.53275 33.8067 9.15721 33.0619 9.06314C33.2074 8.64678 33.2999 8.20336 33.2999 7.73415C33.2999 6.70854 32.9101 5.72493 32.2162 4.99972C31.5223 4.2745 30.5812 3.86708 29.5998 3.86708C29.1127 3.86708 28.6501 3.97149 28.2246 4.15066C28.0148 3.33131 27.5526 2.607 26.9094 2.08974C26.2663 1.57248 25.4779 1.29107 24.6664 1.28903C23.5934 1.28903 22.6363 1.7737 21.9604 2.53551C21.4399 1.05829 20.0931 0 18.4996 0C16.9061 0 15.5592 1.05829 15.0388 2.53551C14.6948 2.14335 14.2767 1.83007 13.8109 1.61551C13.3451 1.40095 12.8418 1.28978 12.3328 1.28903C11.5213 1.29092 10.7331 1.5723 10.0901 2.0896C9.44707 2.60691 8.98513 3.3313 8.77576 4.15066C8.33859 3.96477 7.87129 3.86849 7.39932 3.86708C6.418 3.86708 5.47687 4.2745 4.78297 4.99972C4.08907 5.72493 3.69924 6.70854 3.69924 7.73415C3.69924 8.20336 3.79174 8.64678 3.93728 9.06314C3.19247 9.15721 2.5063 9.53275 2.00809 10.119C1.50988 10.7052 1.23402 11.4617 1.23252 12.2457C1.23252 12.6518 1.31269 13.0359 1.44342 13.393C1.00487 13.6794 0.642633 14.077 0.390316 14.5488C0.137998 15.0206 0.00376862 15.5514 7.82092e-05 16.0919C-0.0036122 16.6324 0.123356 17.1651 0.369205 17.6406C0.615055 18.1161 0.971824 18.5191 1.40642 18.812C1.29203 19.1898 1.23339 19.5836 1.23252 19.9799C1.23252 21.76 2.33638 23.2025 3.69924 23.2025C4.10255 23.2025 4.47626 23.0645 4.81297 22.8402C5.36058 24.7003 6.16596 25.7573 6.16596 23.2025C6.16596 21.1594 6.182 19.9129 7.10332 17.9419C8.56979 18.4614 10.6899 18.1469 12.6941 16.9378C13.0325 16.7324 13.3591 16.5064 13.6722 16.2611C14.1384 18.0167 16.1217 19.3354 18.4996 19.3354C20.098 19.3354 21.5053 18.7295 22.4056 17.8053C22.9927 19.4282 24.8748 20.6244 27.1331 20.6244C28.4602 20.6244 29.6603 20.2093 30.5458 19.5403C30.869 20.7185 30.8813 21.7613 30.8813 23.2025C30.8813 26.2291 31.7126 24.953 32.2614 22.8931C32.5772 23.0864 32.9274 23.2025 33.2999 23.2025C34.6628 23.2025 35.7666 21.76 35.7666 19.9799C35.7666 19.5661 35.7013 19.1743 35.594 18.812C36.0252 18.5204 36.3797 18.1207 36.6253 17.6492C36.8709 17.1778 36.9997 16.6496 37 16.1128Z" fill="#7B61FF"/>
</svg>
