<svg width="40" height="27" viewBox="0 0 40 27" fill="none" xmlns="http://www.w3.org/2000/svg">
<path d="M26.4946 15.4886C29.0612 15.4886 32.7557 15.0257 32.7557 12.3343C32.7751 12.1286 32.7557 11.9229 32.6973 11.7171L31.1807 5.88857C30.8307 4.60286 30.5196 4.02 27.9529 2.88857C25.9696 1.99714 21.6529 0.522858 20.3696 0.522858C19.1834 0.522858 18.8334 1.87714 17.414 1.87714C16.0529 1.87714 15.0418 0.865715 13.7584 0.865715C12.5334 0.865715 11.7362 1.60286 11.114 3.11143C11.114 3.11143 9.40289 7.39714 9.16955 8.01429C9.15011 8.13429 9.13066 8.23714 9.13066 8.35714C9.13066 10.02 16.5584 15.4714 26.4946 15.4714V15.4886ZM33.164 13.4314C33.514 14.9057 33.514 15.06 33.514 15.2143C33.514 17.7857 30.2862 19.1743 26.0668 19.1743C16.5001 19.1743 8.11955 14.2371 8.11955 10.98C8.11955 10.5171 8.23622 10.0714 8.43067 9.66C4.989 9.79714 0.555664 10.3457 0.555664 13.8086C0.555664 19.5 15.8001 26.4771 27.8751 26.4771C37.1307 26.4771 39.4446 22.7914 39.4446 19.8771C39.4446 17.58 37.2084 14.9743 33.164 13.4314Z" fill="#1976D2"/>
</svg>
