<svg width="43" height="15" viewBox="0 0 43 15" fill="none" xmlns="http://www.w3.org/2000/svg">
<path d="M7.06405 7.55438C10.3511 6.54844 10.5291 2.78063 14.8611 1.98563C18.3261 1.34813 20.4082 3.58688 20.9252 5.96344C21.3582 7.95281 20.0592 13.125 13.1281 13.125C4.46503 13.125 1.578 7.95281 1 5.96344C1.86601 6.75938 4.46503 8.35031 7.06405 7.55438Z" stroke="#38AE00" stroke-width="2" stroke-linejoin="round"/>
<path d="M35.7694 7.55438C32.4814 6.54844 32.3044 2.78063 27.9724 1.98563C24.5074 1.34813 22.4253 3.58688 21.9083 5.96344C21.4753 7.95281 22.7743 13.125 29.7054 13.125C38.3685 13.125 41.2555 7.95281 41.8335 5.96344C40.9675 6.75938 38.3685 8.35031 35.7694 7.55438V7.55438Z" stroke="#38AE00" stroke-width="2" stroke-linejoin="round"/>
</svg>
