<svg width="14" height="14" viewBox="0 0 14 14" fill="none" xmlns="http://www.w3.org/2000/svg">
<g clip-path="url(#clip0_130_2604)">
<path d="M13.1116 3.35431L10.8939 1.17051C10.6119 0.889152 10.2302 0.726201 9.82888 0.715801C9.42755 0.705401 9.0377 0.848358 8.74103 1.11472L7.12231 2.70873L6.07824 1.72044C6.00278 1.64613 5.91319 1.58719 5.81459 1.54697C5.71599 1.50675 5.61032 1.48605 5.50359 1.48605C5.28806 1.48605 5.08136 1.57036 4.92895 1.72044C4.85349 1.79476 4.79363 1.88298 4.75279 1.98007C4.71195 2.07716 4.69093 2.18123 4.69093 2.28632C4.69093 2.49856 4.77655 2.70212 4.92895 2.8522L5.93255 3.88034L1.4568 8.28779C1.19519 8.54758 1.0323 8.8881 0.995469 9.25217L0.647445 12.5757C0.636542 12.6924 0.651924 12.8101 0.692495 12.9203C0.733065 13.0305 0.797825 13.1306 0.882159 13.2133C0.957785 13.2872 1.04748 13.3456 1.14609 13.3853C1.2447 13.4249 1.35029 13.445 1.4568 13.4444H1.52965L4.90467 13.1416C5.27438 13.1053 5.62017 12.9449 5.88399 12.6873L10.4002 8.23997L11.4038 9.22826C11.4791 9.30296 11.5686 9.36225 11.6672 9.40271C11.7658 9.44318 11.8716 9.46401 11.9785 9.46401C12.0853 9.46401 12.1911 9.44318 12.2897 9.40271C12.3884 9.36225 12.4779 9.30296 12.5531 9.22826C12.629 9.15417 12.6892 9.06602 12.7303 8.96889C12.7714 8.87177 12.7925 8.7676 12.7925 8.66238C12.7925 8.55717 12.7714 8.45299 12.7303 8.35587C12.6892 8.25875 12.629 8.1706 12.5531 8.09651L11.5495 7.10822L13.1682 5.5142C13.4509 5.22008 13.6037 4.82759 13.5931 4.42273C13.5825 4.01787 13.4093 3.63367 13.1116 3.35431ZM2.5899 9.41157L7.12231 4.96427L9.29949 7.11619L7.04138 9.33984" fill="black"/>
</g>
<defs>
<clipPath id="clip0_130_2604">
<rect width="13.5972" height="12.7521" fill="white" transform="translate(0 0.692307)"/>
</clipPath>
</defs>
</svg>
